<?xml version="1.0" encoding="UTF-8" standalone="no"?>
<svg
   xmlns:dc="http://purl.org/dc/elements/1.1/"
   xmlns:cc="http://creativecommons.org/ns#"
   xmlns:rdf="http://www.w3.org/1999/02/22-rdf-syntax-ns#"
   xmlns:svg="http://www.w3.org/2000/svg"
   xmlns="http://www.w3.org/2000/svg"
   xmlns:sodipodi="http://sodipodi.sourceforge.net/DTD/sodipodi-0.dtd"
   xmlns:inkscape="http://www.inkscape.org/namespaces/inkscape"
   width="23.9998"
   height="23.717"
   id="svg2"
   version="1.1"
   inkscape:version="0.91 r13725"
   sodipodi:docname="connect-geo.svg"
   style="clip-rule:evenodd;fill-rule:evenodd">
  <metadata
     id="metadata10">
    <rdf:RDF>
      <cc:Work
         rdf:about="">
        <dc:format>image/svg+xml</dc:format>
        <dc:type
           rdf:resource="http://purl.org/dc/dcmitype/StillImage" />
        <dc:title></dc:title>
      </cc:Work>
    </rdf:RDF>
  </metadata>
  <defs
     id="defs8" />
  <sodipodi:namedview
     pagecolor="#ffffff"
     bordercolor="#666666"
     borderopacity="1"
     objecttolerance="10"
     gridtolerance="10"
     guidetolerance="10"
     inkscape:pageopacity="0"
     inkscape:pageshadow="2"
     inkscape:window-width="1920"
     inkscape:window-height="1056"
     id="namedview6"
     showgrid="false"
     inkscape:zoom="2.45833"
     inkscape:cx="1.10083"
     inkscape:cy="-25.8577"
     inkscape:window-x="0"
     inkscape:window-y="24"
     inkscape:window-maximized="1"
     inkscape:current-layer="svg2"
     fit-margin-top="0"
     fit-margin-left="0"
     fit-margin-right="0"
     fit-margin-bottom="0"
     showborder="true" />
  <path
     d="m 18.0847,6.49085 c 0.5895,-0.0317 0.9755,-0.4572 0.9611,-0.92879 -0.01,-0.45479 -0.5012,-0.9045 -1.0504,-0.89634 -0.4115,0.0115 -0.9993,0.35159 -1.0017,0.88818 0,0.57663 0.5657,0.93695 1.0584,0.93695 m 0.029,-3.03474 c 1.226,0 2.2197,0.92831 2.2197,2.0735 0,1.14538 -0.9937,2.07369 -2.2197,2.07369 -1.2258,0 -2.2192,-0.92831 -2.2192,-2.07369 0,-1.14519 0.9934,-2.0735 2.2192,-2.0735 m 4.569,1.80986 c 0,-2.43094 -1.7934,-3.94288 -4.5527,-3.94288 -2.7587,0 -4.514,1.58462 -4.514,4.01556 0,2.38811 1.1829,4.06049 4.465,8.88795 3.3219,-4.88901 4.6113,-6.55149 4.6113,-8.9396 M 18.0818,5e-6 c 3.1059,0 5.918,2.352295 5.918,5.254535 0,2.90167 -2.5653,6.36606 -5.918,11.33436 C 14.7296,11.6206 12.1633,8.15621 12.1633,5.25454 12.1633,2.3523 14.9752,5e-6 18.0818,5e-6"
     id="path4"
     inkscape:connector-curvature="0"
     style="fill:#000000;fill-opacity:1;stroke:#000000;stroke-width:0;stroke-miterlimit:4;stroke-dasharray:none;stroke-opacity:1"
     sodipodi:nodetypes="csssccsssccsscccscsc" />
  <path
     style="fill:none;fill-rule:evenodd;stroke:#000000;stroke-width:1.019524;stroke-linecap:butt;stroke-linejoin:miter;stroke-miterlimit:4;stroke-dasharray:none;stroke-opacity:1"
     d="m 10.4182,23.5869 c 0,0 0.8536,-8.7686 7.752,-7.5379"
     id="path4162-5"
     inkscape:connector-curvature="0"
     sodipodi:nodetypes="cs" />
  <g
     id="g4164-3-3"
     transform="matrix(-0.812941,0,0,0.822465,10.7305,3.61299)"
     style="stroke-width:0.935127;stroke-miterlimit:4;stroke-dasharray:none">
    <path
       style="fill:none;stroke:#000000;stroke-width:1.246835;stroke-miterlimit:4;stroke-dasharray:none"
       d="m 10.3729,13.1695 c 0,2.2185 -1.7757,4.0169 -3.96612,4.0169 -2.19042,0 -3.9661,-1.7984 -3.9661,-4.0169 0,-2.2185 1.77568,-4.01696 3.9661,-4.01696 2.19042,0 3.96612,1.79846 3.96612,4.01696 z"
       id="path3338-6-5"
       inkscape:connector-curvature="0"
       sodipodi:nodetypes="sssss" />
    <path
       sodipodi:nodetypes="ssccs"
       inkscape:connector-curvature="0"
       id="rect4142-7-6"
       d="M 0.291999,21.4411 C 2.1738,17.5727 10.2474,17.1977 12.421,21.4156 c 0.2335,0.453 0.1271,2.4046 0.1271,2.4046 l -12.332373,0 c 0,0 -0.116155,-1.9836 0.07627,-2.3791 z"
       style="fill:none;stroke:#000000;stroke-width:1.246835;stroke-miterlimit:4;stroke-dasharray:none" />
  </g>
  <path
     sodipodi:nodetypes="csssccsssccsscccscsc"
     style="fill:#000000;fill-opacity:1;stroke:#000000;stroke-width:0;stroke-miterlimit:4;stroke-dasharray:none;stroke-opacity:1"
     inkscape:connector-curvature="0"
     id="path4302"
     d="m 18.0847,6.49085 c 0.5895,-0.0317 0.9755,-0.4572 0.9611,-0.92879 -0.01,-0.45479 -0.5012,-0.9045 -1.0504,-0.89634 -0.4115,0.0115 -0.9993,0.35159 -1.0017,0.88818 0,0.57663 0.5657,0.93695 1.0584,0.93695 m 0.029,-3.03474 c 1.226,0 2.2197,0.92831 2.2197,2.0735 0,1.14538 -0.9937,2.07369 -2.2197,2.07369 -1.2258,0 -2.2192,-0.92831 -2.2192,-2.07369 0,-1.14519 0.9934,-2.0735 2.2192,-2.0735 m 4.569,1.80986 c 0,-2.43094 -1.7934,-3.94288 -4.5527,-3.94288 -2.7587,0 -4.514,1.58462 -4.514,4.01556 0,2.38811 1.1829,4.06049 4.465,8.88795 3.3219,-4.88901 4.6113,-6.55149 4.6113,-8.9396 M 18.0818,5e-6 c 3.1059,0 5.918,2.352295 5.918,5.254535 0,2.90167 -2.5653,6.36606 -5.918,11.33436 C 14.7296,11.6206 12.1633,8.15621 12.1633,5.25454 12.1633,2.3523 14.9752,5e-6 18.0818,5e-6" />
  <path
     sodipodi:nodetypes="cs"
     inkscape:connector-curvature="0"
     id="path4304"
     d="m 10.4182,23.5869 c 0,0 0.8536,-8.7686 7.752,-7.5379"
     style="fill:none;fill-rule:evenodd;stroke:#000000;stroke-width:1.019524;stroke-linecap:butt;stroke-linejoin:miter;stroke-miterlimit:4;stroke-dasharray:none;stroke-opacity:1" />
  <path
     style="fill:none;stroke:#000000;stroke-width:1.019524;stroke-miterlimit:4;stroke-dasharray:none"
     d="m 2.29807,14.4444 c 0,1.8246 1.44348,3.3038 3.22415,3.3038 1.78067,0 3.22416,-1.4792 3.22416,-3.3038 0,-1.8246 -1.44349,-3.3038 -3.22416,-3.3038 -1.78067,0 -3.22415,1.4792 -3.22415,3.3038 z"
     id="path4308"
     inkscape:connector-curvature="0"
     sodipodi:nodetypes="sssss" />
  <path
     sodipodi:nodetypes="ssccs"
     inkscape:connector-curvature="0"
     id="path4310"
     d="m 10.4932,21.2481 c -1.52974,-3.1823 -8.09308,-3.4905 -9.860209,-0.029 -0.189808,0.3725 -0.10378,1.9778 -0.10378,1.9778 l 10.025589,0 c 0,0 0.094,-1.6312 -0.062,-1.9566 z"
     style="fill:none;stroke:#000000;stroke-width:1.019524;stroke-miterlimit:4;stroke-dasharray:none" />
</svg>
